<svg width="24" height="24" viewBox="0 0 24 24" xmlns="http://www.w3.org/2000/svg" aria-hidden="true">
  <path fill="#111111" d="M20.45 2H3.55A1.55 1.55 0 0 0 2 3.55v16.9A1.55 1.55 0 0 0 3.55 22h16.9A1.55 1.55 0 0 0 22 20.45V3.55A1.55 1.55 0 0 0 20.45 2ZM8.34 18.34H5.67V9.76h2.67v8.58ZM7 8.46a1.55 1.55 0 1 1 0-3.1 1.55 1.55 0 0 1 0 3.1Zm11.34 9.88h-2.66v-4.25c0-1.01-.02-2.32-1.42-2.32-1.42 0-1.64 1.11-1.64 2.25v4.32h-2.66V9.76h2.55v1.17h.04a2.8 2.8 0 0 1 2.52-1.38c2.7 0 3.2 1.78 3.2 4.09v4.7Z"/>
</svg>
