<svg width="24" height="24" viewBox="0 0 24 24" xmlns="http://www.w3.org/2000/svg" aria-hidden="true">
  <path fill="#111111" d="M12 2a10 10 0 0 0-3.16 19.49c.5.09.68-.22.68-.48 0-.24-.01-.87-.01-1.7-2.47.54-3-1.19-3-1.19-.45-1.16-1.11-1.47-1.11-1.47-.91-.62.07-.61.07-.61 1 .07 1.52 1.03 1.52 1.03.9 1.53 2.36 1.09 2.94.83.09-.66.35-1.09.63-1.34-1.97-.22-4.04-.98-4.04-4.36 0-.96.35-1.75.92-2.37-.09-.23-.4-1.13.09-2.35 0 0 .75-.24 2.45.9a8.55 8.55 0 0 1 4.46 0c1.7-1.14 2.45-.9 2.45-.9.49 1.22.18 2.12.09 2.35.57.62.92 1.41.92 2.37 0 3.39-2.07 4.13-4.05 4.35.36.31.68.92.68 1.86 0 1.34-.01 2.42-.01 2.75 0 .26.18.58.69.48A10 10 0 0 0 12 2z"/>
</svg>
