<svg width="160" height="40" viewBox="0 0 160 40" xmlns="http://www.w3.org/2000/svg" role="img" aria-labelledby="title">
  <title id="title">Shizuya Kubota</title>
  <rect x="0" y="0" width="160" height="40" rx="10" fill="#111111"/>
  <path d="M20 11h4l5 18h-4l-1-4h-4l-1 4h-4l5-18zm2 4.8-1.3 5.2h2.6L22 15.8zm14-4.8h4v14h6v4h-10V11zm15 0h4v7.5L61 11h4v18h-4v-7.6L55 29h-4V11zm19 0c4.6 0 8 3.1 8 9s-3.4 9-8 9-8-3.1-8-9 3.4-9 8-9zm0 4c-2.3 0-4 1.7-4 5s1.7 5 4 5 4-1.7 4-5-1.7-5-4-5zm18-4c4.6 0 8 3.1 8 9s-3.4 9-8 9-8-3.1-8-9 3.4-9 8-9zm0 4c-2.3 0-4 1.7-4 5s1.7 5 4 5 4-1.7 4-5-1.7-5-4-5zm14-4h4l6 18h-4l-1.1-3.6h-5.8L94 29h-4l6-18zm4 10-1.8-5.8-1.8 5.8h3.6zm10-10h4v14h6v4h-10V11z" fill="#f5c400"/>
</svg>
