<svg xmlns="http://www.w3.org/2000/svg" width="480" height="360" viewBox="0 0 480 360" role="img" aria-labelledby="title desc">
  <title id="title">VRM Lighting Preview</title>
  <desc id="desc">Stylised avatar silhouette bathed in gradient studio lighting.</desc>
  <defs>
    <linearGradient id="bg" x1="0" x2="1" y1="0" y2="1">
      <stop offset="0" stop-color="#10152b" />
      <stop offset="1" stop-color="#1d3755" />
    </linearGradient>
    <radialGradient id="glow" cx="0.5" cy="0.4" r="0.7">
      <stop offset="0" stop-color="#6ad0ff" stop-opacity="0.9" />
      <stop offset="1" stop-color="#0a1225" stop-opacity="0" />
    </radialGradient>
    <linearGradient id="avatar" x1="0" x2="1">
      <stop offset="0" stop-color="#6ce0ff" />
      <stop offset="1" stop-color="#9c7bff" />
    </linearGradient>
  </defs>
  <rect width="480" height="360" rx="32" fill="url(#bg)" />
  <rect width="480" height="360" rx="32" fill="url(#glow)" />
  <g transform="translate(240 200)">
    <path d="M0-98c38 0 68 30 68 68 0 33-22 61-52 66v32c0 8-6 14-14 14s-14-6-14-14v-32c-30-5-52-33-52-66 0-38 30-68 68-68z" fill="url(#avatar)" />
    <ellipse cx="0" cy="112" rx="110" ry="28" fill="#0f172b" opacity="0.7" />
  </g>
</svg>
