<svg xmlns="http://www.w3.org/2000/svg" width="640" height="360" viewBox="0 0 640 360" role="img" aria-labelledby="title desc">
  <title id="title">64516451 Groove Grid</title>
  <desc id="desc">Grid of drum machine steps with highlighted accents representing syncopated rhythms.</desc>
  <defs>
    <linearGradient id="grid-bg" x1="0" x2="1" y1="0" y2="1">
      <stop offset="0" stop-color="#071117" />
      <stop offset="1" stop-color="#102431" />
    </linearGradient>
  </defs>
  <rect fill="url(#grid-bg)" width="640" height="360" rx="24" />
  <g transform="translate(40 60)" stroke="#123040" stroke-width="3">
    <rect fill="#0a1d29" width="560" height="240" rx="18" />
    <g fill="#102f3f">
      <rect x="32" y="32" width="92" height="44" rx="8" />
      <rect x="140" y="32" width="92" height="44" rx="8" />
      <rect x="248" y="32" width="92" height="44" rx="8" />
      <rect x="356" y="32" width="92" height="44" rx="8" />
      <rect x="464" y="32" width="92" height="44" rx="8" />

      <rect x="32" y="88" width="92" height="44" rx="8" />
      <rect x="140" y="88" width="92" height="44" rx="8" />
      <rect x="248" y="88" width="92" height="44" rx="8" />
      <rect x="356" y="88" width="92" height="44" rx="8" />
      <rect x="464" y="88" width="92" height="44" rx="8" />

      <rect x="32" y="144" width="92" height="44" rx="8" />
      <rect x="140" y="144" width="92" height="44" rx="8" />
      <rect x="248" y="144" width="92" height="44" rx="8" />
      <rect x="356" y="144" width="92" height="44" rx="8" />
      <rect x="464" y="144" width="92" height="44" rx="8" />

      <rect x="32" y="200" width="92" height="44" rx="8" />
      <rect x="140" y="200" width="92" height="44" rx="8" />
      <rect x="248" y="200" width="92" height="44" rx="8" />
      <rect x="356" y="200" width="92" height="44" rx="8" />
      <rect x="464" y="200" width="92" height="44" rx="8" />
    </g>
    <g fill="#fbc531">
      <rect x="32" y="32" width="92" height="44" rx="8" opacity="0.85" />
      <rect x="248" y="88" width="92" height="44" rx="8" opacity="0.85" />
      <rect x="356" y="144" width="92" height="44" rx="8" opacity="0.85" />
      <rect x="464" y="200" width="92" height="44" rx="8" opacity="0.85" />
    </g>
  </g>
</svg>
