<svg xmlns="http://www.w3.org/2000/svg" width="640" height="360" viewBox="0 0 640 360" role="img" aria-labelledby="title desc">
  <title id="title">Amber Skies Score</title>
  <desc id="desc">Sheet music fragments and lush string swells against a warm gradient background.</desc>
  <defs>
    <linearGradient id="amber-bg" x1="0" x2="1" y1="0" y2="1">
      <stop offset="0" stop-color="#32180c" />
      <stop offset="1" stop-color="#72331c" />
    </linearGradient>
  </defs>
  <rect fill="url(#amber-bg)" width="640" height="360" rx="24" />
  <g transform="translate(52 52)">
    <rect fill="rgba(255, 232, 204, 0.16)" stroke="rgba(255, 232, 204, 0.24)" stroke-width="2" width="536" height="256" rx="18" />
    <g stroke="rgba(255, 218, 158, 0.45)" stroke-width="2">
      <line x1="48" y1="96" x2="488" y2="96" />
      <line x1="48" y1="112" x2="488" y2="112" />
      <line x1="48" y1="128" x2="488" y2="128" />
      <line x1="48" y1="144" x2="488" y2="144" />
      <line x1="48" y1="160" x2="488" y2="160" />
    </g>
    <path d="M96 200 C 140 164, 188 184, 224 152 S 320 132, 376 168 S 436 224, 492 192" fill="none" stroke="#f5b971" stroke-width="4" stroke-linecap="round" opacity="0.8" />
    <g fill="#f1c27d" opacity="0.85">
      <rect x="92" y="84" width="36" height="22" rx="6" />
      <rect x="200" y="124" width="52" height="22" rx="6" />
      <rect x="320" y="104" width="60" height="22" rx="6" />
    </g>
  </g>
</svg>
