<svg xmlns="http://www.w3.org/2000/svg" width="640" height="360" viewBox="0 0 640 360" role="img" aria-labelledby="title desc">
  <title id="title">Amber Skies Mix Console</title>
  <desc id="desc">Mix console with string buss faders and warm ambience captures for Amber Skies.</desc>
  <defs>
    <linearGradient id="mix-bg" x1="0" x2="1" y1="0" y2="1">
      <stop offset="0" stop-color="#1d0f1a" />
      <stop offset="1" stop-color="#391f2c" />
    </linearGradient>
  </defs>
  <rect fill="url(#mix-bg)" width="640" height="360" rx="24" />
  <g transform="translate(56 56)">
    <rect fill="rgba(255, 221, 205, 0.14)" stroke="rgba(255, 221, 205, 0.3)" stroke-width="2" width="528" height="248" rx="18" />
    <g transform="translate(32 24)">
      <g fill="#f0975d">
        <rect x="0" y="0" width="28" height="160" rx="12" />
        <rect x="64" y="0" width="28" height="200" rx="12" />
        <rect x="128" y="0" width="28" height="140" rx="12" />
        <rect x="192" y="0" width="28" height="188" rx="12" />
      </g>
      <g fill="#f5c49c" opacity="0.4">
        <rect x="0" y="176" width="28" height="54" rx="12" />
        <rect x="64" y="212" width="28" height="18" rx="9" />
        <rect x="128" y="172" width="28" height="58" rx="12" />
        <rect x="192" y="208" width="28" height="22" rx="11" />
      </g>
      <g fill="#ffddcd" transform="translate(270)">
        <rect x="0" y="0" width="24" height="180" rx="10" />
        <rect x="56" y="0" width="24" height="150" rx="10" />
        <rect x="112" y="0" width="24" height="196" rx="10" />
        <rect x="168" y="0" width="24" height="170" rx="10" />
      </g>
    </g>
  </g>
</svg>
