<svg xmlns="http://www.w3.org/2000/svg" width="640" height="360" viewBox="0 0 640 360" role="img" aria-labelledby="title desc">
  <title id="title">Midnight Lines Arrangement View</title>
  <desc id="desc">Stylised digital audio workstation arrangement with layered clips and automation curves.</desc>
  <defs>
    <linearGradient id="bg2" x1="0" x2="1" y1="0" y2="1">
      <stop offset="0" stop-color="#020817" />
      <stop offset="1" stop-color="#18294a" />
    </linearGradient>
    <linearGradient id="clip" x1="0" x2="1">
      <stop offset="0" stop-color="#1dd3b0" />
      <stop offset="1" stop-color="#5ef38c" />
    </linearGradient>
    <linearGradient id="clipB" x1="0" x2="1">
      <stop offset="0" stop-color="#577eff" />
      <stop offset="1" stop-color="#8ab6ff" />
    </linearGradient>
  </defs>
  <rect fill="url(#bg2)" width="640" height="360" rx="24" />
  <g transform="translate(32 32)">
    <rect fill="#0e1426" width="576" height="296" rx="18" />
    <g fill="#111a33">
      <rect x="28" y="40" width="520" height="40" rx="10" />
      <rect x="28" y="100" width="520" height="40" rx="10" />
      <rect x="28" y="160" width="520" height="40" rx="10" />
      <rect x="28" y="220" width="520" height="40" rx="10" />
    </g>
    <g>
      <rect x="40" y="46" width="220" height="28" rx="8" fill="url(#clip)" opacity="0.9" />
      <rect x="272" y="46" width="180" height="28" rx="8" fill="url(#clipB)" opacity="0.9" />
      <rect x="40" y="106" width="160" height="28" rx="8" fill="url(#clipB)" opacity="0.8" />
      <rect x="216" y="106" width="230" height="28" rx="8" fill="url(#clip)" opacity="0.9" />
      <rect x="40" y="166" width="210" height="28" rx="8" fill="url(#clip)" opacity="0.75" />
      <rect x="264" y="166" width="180" height="28" rx="8" fill="url(#clipB)" opacity="0.75" />
    </g>
    <path d="M40 230 C 120 260, 220 200, 300 236 S 460 220, 520 244" stroke="#ff8a65" stroke-width="4" fill="none" stroke-linecap="round" opacity="0.8" />
  </g>
</svg>
