<svg xmlns="http://www.w3.org/2000/svg" width="640" height="360" viewBox="0 0 640 360" role="img" aria-labelledby="title desc">
  <title id="title">Midnight Lines Modular Rack</title>
  <desc id="desc">A stylised depiction of a modular synthesizer rack with glowing cables and sequencer lanes.</desc>
  <defs>
    <linearGradient id="bg" x1="0" x2="1" y1="0" y2="1">
      <stop offset="0" stop-color="#0f2027" />
      <stop offset="1" stop-color="#203a43" />
    </linearGradient>
    <linearGradient id="panel" x1="0" x2="1">
      <stop offset="0" stop-color="#192a35" />
      <stop offset="1" stop-color="#274757" />
    </linearGradient>
    <linearGradient id="cable" x1="0" x2="1">
      <stop offset="0" stop-color="#93ff8f" />
      <stop offset="1" stop-color="#77d7f4" />
    </linearGradient>
  </defs>
  <rect fill="url(#bg)" width="640" height="360" rx="24" />
  <g transform="translate(40 40)">
    <rect fill="url(#panel)" width="560" height="280" rx="18" />
    <g stroke="#1b2d38" stroke-width="2">
      <rect fill="#1c2d39" x="24" y="28" width="168" height="224" rx="12" />
      <rect fill="#142029" x="208" y="28" width="152" height="224" rx="12" />
      <rect fill="#1c2d39" x="376" y="28" width="160" height="224" rx="12" />
    </g>
    <g stroke="url(#cable)" stroke-width="4" fill="none" stroke-linecap="round">
      <path d="M70 80 C 140 60, 140 150, 210 130" />
      <path d="M110 220 C 180 180, 220 250, 280 210" />
      <path d="M440 200 C 420 130, 500 130, 510 70" />
    </g>
    <g fill="#3de6b3" opacity="0.6">
      <rect x="54" y="92" width="16" height="16" rx="4" />
      <rect x="92" y="92" width="16" height="16" rx="4" />
      <rect x="130" y="92" width="16" height="16" rx="4" />
    </g>
    <g fill="#b3f2ff" opacity="0.7">
      <rect x="402" y="70" width="112" height="12" rx="6" />
      <rect x="402" y="104" width="112" height="12" rx="6" />
      <rect x="402" y="138" width="112" height="12" rx="6" />
      <rect x="402" y="172" width="112" height="12" rx="6" />
    </g>
  </g>
</svg>
